<svg width="180" height="80" viewBox="0 0 180 80" fill="none" xmlns="http://www.w3.org/2000/svg">
<path opacity="0.2" d="M34.384 79.44C27.472 79.44 21.504 77.936 16.48 74.928C11.488 71.92 7.632 67.712 4.912 62.304C2.224 56.896 0.88 50.608 0.88 43.44C0.88 36.272 2.224 29.984 4.912 24.576C7.632 19.168 11.488 14.96 16.48 11.952C21.504 8.944 27.472 7.44 34.384 7.44C41.296 7.44 47.248 8.944 52.24 11.952C57.264 14.96 61.12 19.168 63.808 24.576C66.528 29.984 67.888 36.272 67.888 43.44C67.888 50.608 66.528 56.896 63.808 62.304C61.12 67.712 57.264 71.92 52.24 74.928C47.248 77.936 41.296 79.44 34.384 79.44ZM34.384 67.152C38.768 67.216 42.416 66.272 45.328 64.32C48.24 62.368 50.416 59.6 51.856 56.016C53.328 52.432 54.064 48.24 54.064 43.44C54.064 38.64 53.328 34.48 51.856 30.96C50.416 27.44 48.24 24.704 45.328 22.752C42.416 20.8 38.768 19.792 34.384 19.728C30 19.664 26.352 20.608 23.44 22.56C20.528 24.512 18.336 27.28 16.864 30.864C15.424 34.448 14.704 38.64 14.704 43.44C14.704 48.24 15.424 52.4 16.864 55.92C18.336 59.44 20.528 62.176 23.44 64.128C26.352 66.08 30 67.088 34.384 67.152ZM78.43 78V7.44H91.486V78H78.43ZM132.996 18.96H123.3L131.268 0.239994H140.964L132.996 18.96ZM120.276 79.44C116.564 79.44 113.412 78.736 110.82 77.328C108.26 75.888 106.308 73.984 104.964 71.616C103.652 69.216 102.996 66.576 102.996 63.696C102.996 61.296 103.364 59.104 104.1 57.12C104.836 55.136 106.02 53.392 107.652 51.888C109.316 50.352 111.54 49.072 114.324 48.048C116.244 47.344 118.532 46.72 121.188 46.176C123.844 45.632 126.852 45.12 130.212 44.64C133.572 44.128 137.268 43.568 141.3 42.96L136.596 45.552C136.596 42.48 135.86 40.224 134.388 38.784C132.916 37.344 130.452 36.624 126.996 36.624C125.076 36.624 123.076 37.088 120.996 38.016C118.916 38.944 117.46 40.592 116.628 42.96L104.82 39.216C106.132 34.928 108.596 31.44 112.212 28.752C115.828 26.064 120.756 24.72 126.996 24.72C131.572 24.72 135.636 25.424 139.188 26.832C142.74 28.24 145.428 30.672 147.252 34.128C148.276 36.048 148.884 37.968 149.076 39.888C149.268 41.808 149.364 43.952 149.364 46.32V78H137.94V67.344L139.572 69.552C137.044 73.04 134.308 75.568 131.364 77.136C128.452 78.672 124.756 79.44 120.276 79.44ZM123.06 69.168C125.46 69.168 127.476 68.752 129.108 67.92C130.772 67.056 132.084 66.08 133.044 64.992C134.036 63.904 134.708 62.992 135.06 62.256C135.732 60.848 136.116 59.216 136.212 57.36C136.34 55.472 136.404 53.904 136.404 52.656L140.244 53.616C136.372 54.256 133.236 54.8 130.836 55.248C128.436 55.664 126.5 56.048 125.028 56.4C123.556 56.752 122.26 57.136 121.14 57.552C119.86 58.064 118.82 58.624 118.02 59.232C117.252 59.808 116.676 60.448 116.292 61.152C115.94 61.856 115.764 62.64 115.764 63.504C115.764 64.688 116.052 65.712 116.628 66.576C117.236 67.408 118.084 68.048 119.172 68.496C120.26 68.944 121.556 69.168 123.06 69.168ZM166.645 78V66.48H179.701V78H166.645ZM166.645 60.72V8.88H179.701V60.72H166.645Z" fill="white"/>
</svg>
