<svg width="54" height="13" viewBox="0 0 54 13" fill="none" xmlns="http://www.w3.org/2000/svg">
<path d="M0.2 12V1.2H2.24V12H0.2ZM7.65348 12.225C6.63348 12.225 5.80848 11.995 5.17848 11.535C4.55348 11.07 4.17348 10.415 4.03848 9.57L6.12348 9.255C6.20848 9.635 6.39598 9.9325 6.68598 10.1475C6.98098 10.3625 7.35348 10.47 7.80348 10.47C8.17348 10.47 8.45848 10.4 8.65848 10.26C8.85848 10.115 8.95848 9.915 8.95848 9.66C8.95848 9.5 8.91848 9.3725 8.83848 9.2775C8.75848 9.1775 8.57848 9.08 8.29848 8.985C8.02348 8.89 7.59348 8.765 7.00848 8.61C6.34848 8.44 5.82098 8.25 5.42598 8.04C5.03098 7.83 4.74598 7.58 4.57098 7.29C4.39598 6.995 4.30848 6.64 4.30848 6.225C4.30848 5.705 4.44098 5.255 4.70598 4.875C4.97098 4.49 5.34348 4.195 5.82348 3.99C6.30848 3.78 6.87848 3.675 7.53348 3.675C8.16848 3.675 8.73098 3.7725 9.22098 3.9675C9.71098 4.1625 10.106 4.44 10.406 4.8C10.711 5.16 10.8985 5.585 10.9685 6.075L8.88348 6.45C8.84848 6.15 8.71848 5.9125 8.49348 5.7375C8.26848 5.5625 7.96348 5.46 7.57848 5.43C7.20348 5.405 6.90098 5.455 6.67098 5.58C6.44598 5.705 6.33348 5.885 6.33348 6.12C6.33348 6.26 6.38098 6.3775 6.47598 6.4725C6.57598 6.5675 6.77848 6.665 7.08348 6.765C7.39348 6.865 7.86348 6.995 8.49348 7.155C9.10848 7.315 9.60098 7.5025 9.97098 7.7175C10.346 7.9275 10.6185 8.1825 10.7885 8.4825C10.9585 8.7775 11.0435 9.135 11.0435 9.555C11.0435 10.385 10.7435 11.0375 10.1435 11.5125C9.54348 11.9875 8.71348 12.225 7.65348 12.225ZM14.9416 12.225C14.3616 12.225 13.8691 12.115 13.4641 11.895C13.0641 11.67 12.7591 11.3725 12.5491 11.0025C12.3441 10.6275 12.2416 10.215 12.2416 9.765C12.2416 9.39 12.2991 9.0475 12.4141 8.7375C12.5291 8.4275 12.7141 8.155 12.9691 7.92C13.2291 7.68 13.5766 7.48 14.0116 7.32C14.3116 7.21 14.6691 7.1125 15.0841 7.0275C15.4991 6.9425 15.9691 6.8625 16.4941 6.7875C17.0191 6.7075 17.5966 6.62 18.2266 6.525L17.4916 6.93C17.4916 6.45 17.3766 6.0975 17.1466 5.8725C16.9166 5.6475 16.5316 5.535 15.9916 5.535C15.6916 5.535 15.3791 5.6075 15.0541 5.7525C14.7291 5.8975 14.5016 6.155 14.3716 6.525L12.5266 5.94C12.7316 5.27 13.1166 4.725 13.6816 4.305C14.2466 3.885 15.0166 3.675 15.9916 3.675C16.7066 3.675 17.3416 3.785 17.8966 4.005C18.4516 4.225 18.8716 4.605 19.1566 5.145C19.3166 5.445 19.4116 5.745 19.4416 6.045C19.4716 6.345 19.4866 6.68 19.4866 7.05V12H17.7016V10.335L17.9566 10.68C17.5616 11.225 17.1341 11.62 16.6741 11.865C16.2191 12.105 15.6416 12.225 14.9416 12.225ZM15.3766 10.62C15.7516 10.62 16.0666 10.555 16.3216 10.425C16.5816 10.29 16.7866 10.1375 16.9366 9.9675C17.0916 9.7975 17.1966 9.655 17.2516 9.54C17.3566 9.32 17.4166 9.065 17.4316 8.775C17.4516 8.48 17.4616 8.235 17.4616 8.04L18.0616 8.19C17.4566 8.29 16.9666 8.375 16.5916 8.445C16.2166 8.51 15.9141 8.57 15.6841 8.625C15.4541 8.68 15.2516 8.74 15.0766 8.805C14.8766 8.885 14.7141 8.9725 14.5891 9.0675C14.4691 9.1575 14.3791 9.2575 14.3191 9.3675C14.2641 9.4775 14.2366 9.6 14.2366 9.735C14.2366 9.92 14.2816 10.08 14.3716 10.215C14.4666 10.345 14.5991 10.445 14.7691 10.515C14.9391 10.585 15.1416 10.62 15.3766 10.62ZM26.0252 12V0.975H28.0652V12H26.0252ZM35.1737 12C34.6137 12.105 34.0637 12.15 33.5237 12.135C32.9887 12.125 32.5087 12.0325 32.0837 11.8575C31.6637 11.6775 31.3437 11.39 31.1237 10.995C30.9237 10.625 30.8187 10.25 30.8087 9.87C30.7987 9.485 30.7937 9.05 30.7937 8.565V1.65H32.8337V8.445C32.8337 8.76 32.8362 9.045 32.8412 9.3C32.8512 9.55 32.9037 9.75 32.9987 9.9C33.1787 10.185 33.4662 10.34 33.8612 10.365C34.2562 10.39 34.6937 10.37 35.1737 10.305V12ZM29.4137 5.475V3.9H35.1737V5.475H29.4137ZM40.1843 12.225C39.3693 12.225 38.6543 12.0425 38.0393 11.6775C37.4243 11.3125 36.9443 10.81 36.5993 10.17C36.2593 9.525 36.0893 8.785 36.0893 7.95C36.0893 7.105 36.2643 6.3625 36.6143 5.7225C36.9643 5.0775 37.4468 4.575 38.0618 4.215C38.6768 3.855 39.3843 3.675 40.1843 3.675C40.9993 3.675 41.7143 3.8575 42.3293 4.2225C42.9493 4.5875 43.4318 5.0925 43.7768 5.7375C44.1218 6.3775 44.2943 7.115 44.2943 7.95C44.2943 8.79 44.1193 9.5325 43.7693 10.1775C43.4243 10.8175 42.9418 11.32 42.3218 11.685C41.7068 12.045 40.9943 12.225 40.1843 12.225ZM40.1843 10.32C40.8393 10.32 41.3268 10.1 41.6468 9.66C41.9718 9.215 42.1343 8.645 42.1343 7.95C42.1343 7.23 41.9693 6.655 41.6393 6.225C41.3143 5.795 40.8293 5.58 40.1843 5.58C39.7393 5.58 39.3743 5.68 39.0893 5.88C38.8043 6.08 38.5918 6.3575 38.4518 6.7125C38.3168 7.0675 38.2493 7.48 38.2493 7.95C38.2493 8.675 38.4118 9.2525 38.7368 9.6825C39.0668 10.1075 39.5493 10.32 40.1843 10.32ZM51.4636 12V8.175C51.4636 7.99 51.4536 7.755 51.4336 7.47C51.4136 7.18 51.3511 6.89 51.2461 6.6C51.1411 6.31 50.9686 6.0675 50.7286 5.8725C50.4936 5.6775 50.1586 5.58 49.7236 5.58C49.5486 5.58 49.3611 5.6075 49.1611 5.6625C48.9611 5.7175 48.7736 5.825 48.5986 5.985C48.4236 6.14 48.2786 6.37 48.1636 6.675C48.0536 6.98 47.9986 7.385 47.9986 7.89L46.8286 7.335C46.8286 6.695 46.9586 6.095 47.2186 5.535C47.4786 4.975 47.8686 4.5225 48.3886 4.1775C48.9136 3.8325 49.5736 3.66 50.3686 3.66C51.0036 3.66 51.5211 3.7675 51.9211 3.9825C52.3211 4.1975 52.6311 4.47 52.8511 4.8C53.0761 5.13 53.2361 5.475 53.3311 5.835C53.4261 6.19 53.4836 6.515 53.5036 6.81C53.5236 7.105 53.5336 7.32 53.5336 7.455V12H51.4636ZM45.9286 12V3.9H47.7436V6.585H47.9986V12H45.9286Z" fill="#3772FF"/>
<path d="M21.5867 2.775V0.975H23.6267V2.775H21.5867ZM21.5867 12V3.9H23.6267V12H21.5867Z" fill="#E0E1DD"/>
</svg>
